<svg width="1024" height="256" xmlns="http://www.w3.org/2000/svg" background-color="transparent" preserveAspectRatio="xMidYMid meet">

 <g>
  <title>Layer 1</title>
  <g id="svg_1" fill="#fff">
   <svg y="0" x="-318" id="svg_4" viewBox="0 0 512 512" version="1" preserveAspectRatio="xMidYMid meet" class="icon">
    <svg id="svg_5" width="512" preserveAspectRatio="xMidYMid meet" height="512">
     <svg id="svg_6" viewBox="0 0 1992 1294" version="1.1">
      <path id="svg_7" d="m1960.23438,21.61328c3,2.7 5.9,5.5 8.8,8.4c0.6,0.7 1.3,1.3 2,2c12.2,13.1 17.4,29.3 17.2,46.9c-0.8,17.2 -8.9,33.4 -20.2,46.1c-0.7,0.7 -1.3,1.5 -1.9,2.3c-5.1,6 -10.9,10.8 -17.1,15.7c-1.5,1.2 -1.5,1.2 -2.9,2.4c-14.1,11.2 -29.9,20 -46.1,27.6c-0.8,0.3 -1.5,0.7 -2.3,1.1c-22.4,10.6 -45.8,18 -69.6,25c-2.5,0.7 -5,1.5 -7.5,2.2c-12.1,3.6 -24.1,7.1 -36.2,10.7c-86.3,25.2 -169.9,55.8 -249.1,98.7c-2.6,1.5 -5.3,2.9 -8,4.3c-13.2,7.1 -26.2,14.5 -39.1,22.1c-3.4,2 -6.9,4 -10.4,6c-14.3,8.3 -28.3,16.8 -42,26c-3,2 -6,4 -9,5.9c-22.2,14.7 -43.7,30.1 -63.9,47.5c-2.7,2.3 -5.4,4.5 -8.2,6.7c-12.5,10.2 -23.9,21.9 -35.4,33.3c-0.5,0.5 -1,1 -1.5,1.5c-5.8,5.8 -11.5,11.7 -16.8,18c-0.9,1 -1.8,2 -2.7,3c-7.4,8.7 -14.5,17.8 -21.3,27c-0.6,0.7 -1.1,1.4 -1.7,2.2c-10.1,13.7 -18.5,26.9 -22.3,43.8c-0.2,0.9 -0.5,1.8 -0.7,2.7c-2.4,11.1 -2.5,22.2 -2.5,33.5c0,3.5 -0.1,6.9 -0.1,10.4c0,1.8 0,3.6 0,5.4c-0.5,63.3 -0.5,63.3 -3.5,92.9c-0.2,2.1 -0.4,4.2 -0.6,6.3c-8.6,89.2 -37.5,173.8 -92.6,249.8c-0.7,1 -1.5,1.9 -2.2,3c-16.9,22.8 -35.7,43.9 -55.7,64c-0.8,0.8 -1.6,1.6 -2.4,2.4c-4.2,4.2 -8.5,8.2 -13,12.1c-2.2,1.9 -4.3,3.8 -6.4,5.7c-4.5,4.1 -9.2,7.9 -14,11.6c-3.8,2.9 -7.4,5.9 -11,9c-54.3,45.5 -119.1,81.8 -181.8,114.3c-3.4,1.8 -6.8,3.6 -10.2,5.4c-13.8,7.4 -28.1,14 -42.3,20.5c-1.1,0.5 -2.2,1 -3.4,1.5c-29,13.3 -58.7,24.9 -88.9,35.2c-3.2,1.1 -6.5,2.2 -9.7,3.4c-76.4,26.7 -161.2,42.9 -242.3,43.1c-0.7,0 -1.5,0 -2.3,0c-3.9,0 -7.9,0 -11.9,0c-3.1,0 -6.3,0 -9.5,0.1c-29.4,0.2 -58.5,-1.4 -87.5,-5.6c-0.8,-0.1 -1.5,-0.2 -2.3,-0.3c-55.4,-7.7 -107.7,-20.8 -155.2,-51.4c-1.1,-0.7 -2.2,-1.4 -3.3,-2.1c-6.7,-4.3 -13.3,-8.7 -19.9,-13c-2.4,-1.7 -4.9,-3.2 -7.4,-4.8c-7.8,-5.1 -14.9,-10.7 -21.9,-16.8c-2.3,-1.9 -4.6,-3.7 -6.8,-5.6c-6.3,-5.1 -12.1,-10.6 -18,-16.2c-2.9,-2.7 -5.8,-5.4 -8.8,-8c-5.1,-4.5 -9.8,-9.3 -14.5,-14.1c-3.1,-3.2 -6.2,-6.2 -9.6,-9c-4.1,-3.5 -7.6,-7.4 -11.1,-11.3c-3.6,-3.9 -7.3,-7.7 -11,-11.4c-4.5,-4.4 -8.7,-8.9 -12.7,-13.7c-0.9,-1 -1.7,-1.9 -2.6,-2.9c-12.9,-14.9 -22.4,-30.6 -31.4,-48.1c-0.8,-1.4 -0.8,-1.4 -1.5,-2.8c-17.3,-33.7 -21.3,-68.2 -10.1,-104.6c6.8,-21 16.9,-40.6 29.6,-58.6c0.7,-1.1 1.5,-2.2 2.2,-3.3c8.3,-11.8 17.5,-22.9 26.8,-33.9c0.4,-0.5 0.9,-1 1.3,-1.5c9.9,-11.5 20.5,-22.3 31.2,-33c2.2,-2.2 4.4,-4.4 6.6,-6.6c1.4,-1.4 2.9,-2.8 4.3,-4.3c0.6,-0.6 1.3,-1.3 1.9,-1.9c3.8,-3.8 7.8,-7.4 11.8,-10.9c3,-2.6 5.8,-5.3 8.7,-8c5,-4.7 10.1,-9.1 15.5,-13.4c2.8,-2.3 5.5,-4.8 8.2,-7.2c5.3,-4.9 10.8,-9.5 16.5,-14c1.2,-1 2.4,-2 3.6,-3c8.2,-6.7 16.6,-13.3 25,-19.7c3.8,-2.9 7.5,-5.8 11.3,-8.7c7.6,-6 15.3,-11.8 23.2,-17.3c2,-1.4 4,-2.8 5.9,-4.2c9.6,-6.8 19.2,-13.5 29,-20.1c1.5,-1 1.5,-1 3,-2.1c13.6,-9.1 27.2,-18.1 41.4,-26.4c2.9,-1.7 5.7,-3.5 8.5,-5.2c6.7,-4.2 13.5,-7.8 20.4,-11.3c1.3,-0.7 2.6,-1.3 3.8,-2c4,-2 7.9,-4 11.9,-6c0.6,-0.3 1.2,-0.7 1.9,-1c8.4,-4.3 16.8,-8.5 25.2,-12.7c2.6,-1.3 5.2,-2.6 7.9,-3.9c18.1,-9.2 36.4,-18 55,-26.4c1.7,-0.8 1.7,-0.8 3.6,-1.7c34.1,-15.6 68.8,-29.6 104.1,-42.5c2.2,-0.8 4.4,-1.6 6.6,-2.4c82,-30 167.8,-50.5 368.7,-63.8c42,1.2 84.7,2.2 125,-11.6c0.9,-0.3 1.9,-0.7 2.9,-1c36.3,-12.5 73.7,-29.3 106.1,-50c0.7,-0.5 1.4,-0.9 2.1,-1.4c14.4,-9.3 28.2,-19.3 41.9,-29.6c21.7,-16.4 44.3,-31.3 67.1,-46.1c4.8,-3.1 9.6,-6.3 14.4,-9.4c1.9,-1.3 3.8,-2.5 5.7,-3.8c3.9,-2.5 7.7,-5 11.6,-7.5c11.6,-7.6 23.1,-15.1 34.7,-22.6c4.2,-2.7 8.3,-5.4 12.5,-8.1c4.9,-3.2 9.9,-6.5 14.9,-9.7c18.7,-12.2 37.4,-24.4 56.1,-36.6c12.3,-8.1 24.6,-16.2 37,-24.2c0.8,-0.6 1.7,-1.2 2.6,-1.8c29.4,-19.1 59,-37.8 89,-56c4.2,-2.5 8.4,-5.1 12.7,-7.6c11,-6.7 22,-13.4 33,-20c5.8,-3.5 11.6,-7 17.4,-10.5c23.6,-14.4 47.2,-28.6 71.3,-42.1c0.7,-0.4 1.5,-0.9 2.2,-1.3c62.5,-35.2 194,-104.5 265,-49.1zm-849.6,440.5c-9.4,5 -19.5,8.5 -29.6,11.9c2.6,2.7 5.8,3.7 9.3,5.1c0.7,0.3 1.5,0.6 2.2,0.9c1.7,0.7 3.3,1.3 4.9,2c3.6,1.4 7.1,2.9 10.6,4.3c1.8,0.7 3.7,1.5 5.5,2.2c9,3.7 18,7.4 27,11.2c2.6,1 5.2,2.1 7.7,3.2c7.2,2.9 14.4,5.9 21.5,9c2.8,1.1 5.5,2.3 8.2,3.4c1.9,0.8 3.7,1.6 5.6,2.4c1.1,0.4 2.2,0.9 3.3,1.4c0.9,0.4 1.8,0.8 2.8,1.2c2.5,1 2.5,1 5.4,-0.3c1.5,-1.8 2.9,-3.6 4.3,-5.5c0.9,-1.1 1.7,-2.3 2.6,-3.5c0.5,-0.6 1,-1.3 1.5,-1.9c3.5,-4.7 7.1,-9.2 10.7,-13.8c3.4,-4.3 6.7,-8.8 9.9,-13.3c-2.1,-2.1 -3.3,-2.7 -5.9,-3.7c-0.8,-0.4 -1.6,-0.7 -2.5,-1c-0.9,-0.4 -1.7,-0.7 -2.6,-1.1c-1,-0.4 -1.9,-0.7 -2.8,-1.1c-2,-0.8 -3.9,-1.6 -5.9,-2.4c-5,-2 -10.1,-4.1 -15.1,-6.1c-1,-0.4 -2,-0.8 -3,-1.2c-8.4,-3.4 -16.7,-7 -24.9,-10.7c-0.8,-0.3 -1.6,-0.7 -2.5,-1.1c-0.6,-0.3 -1.3,-0.6 -2,-0.9c-16.5,-6.6 -31.9,1.6 -46.2,9.4zm-23.6,34.9c2.7,2.1 5.2,3.7 8.4,5.1c1.3,0.6 1.3,0.6 2.6,1.1c0.9,0.5 1.8,0.9 2.8,1.3c2,0.9 3.9,1.8 5.9,2.7c1.6,0.7 1.6,0.7 3.1,1.4c22.5,10.2 42.7,20.3 58.2,40.1c1.8,2.3 1.8,2.3 4,3.3c8.3,0.7 16.7,-0.8 25,-2c-4.2,-4.6 -8.9,-7.7 -14.2,-11c-0.9,-0.5 -1.8,-1.1 -2.7,-1.6c-22.9,-13.9 -46.9,-25.2 -71.9,-34.4c-0.7,-0.3 -1.4,-0.5 -2,-0.8c-1.9,-0.7 -3.8,-1.3 -5.7,-2c-1.1,-0.4 -2.2,-0.8 -3.3,-1.2c-3.4,-1.1 -6.7,-1.6 -10.2,-2zm108,70c0,1.3 0,1.3 0,2.6c1.2,57.4 -18.4,105.5 -54,150.4c-0.5,0.6 -1,1.2 -1.5,1.8c-6.4,8.1 -12.9,15.9 -19.9,23.3c-1.9,2.1 -3.8,4.2 -5.6,6.4c-4.9,5.5 -10.1,10.7 -15.2,15.8c-1.8,1.7 -3.5,3.5 -5.2,5.2c-5.7,5.7 -11.5,11.3 -17.6,16.5c-1.8,1.6 -3.6,3.2 -5.3,4.9c-4.5,4 -9.1,7.9 -13.8,11.7c-2.7,2.2 -5.3,4.4 -7.9,6.7c-7.4,6.5 -15.2,12.4 -23.1,18.3c-2.9,2.1 -5.7,4.3 -8.6,6.5c-24.5,19 -50.7,36.1 -77,52.4c-2.4,1.5 -4.8,3 -7.2,4.6c-29.4,18.3 -59.5,35.9 -90,52.2c-3.2,1.7 -6.4,3.4 -9.5,5.2c-29.7,16.1 -59.9,31 -90.7,44.6c-1.9,0.9 -3.8,1.7 -5.7,2.6c-74.1,33 -152.3,58.8 -263.2,83.3c-0.9,0.2 -1.8,0.4 -2.8,0.5c-49.3,10 -99.3,16.6 -149.5,20.2c-0.8,0 -1.7,0.1 -2.6,0.2c-22.8,1.5 -45.5,2.3 -68.3,2.3c-1.1,0 -2.2,0 -3.4,0c-61.3,-0.1 -134.2,-5.9 -180.4,-51.2c-0.6,-0.6 -1.3,-1.2 -1.9,-1.8c-17.9,-19 -24.4,-45.8 -24.1,-71.2c1.3,-34 14.8,-67.8 35,-95c0.4,-0.6 0.9,-1.2 1.3,-1.9c17.2,-23.4 36.2,-44.7 56.7,-65.2c0.7,-0.8 1.5,-1.6 2.3,-2.4c4.1,-4.1 8.4,-8.1 12.8,-11.9c3,-2.6 5.8,-5.3 8.7,-8c5,-4.7 10.2,-9.2 15.6,-13.5c2.5,-2.1 5,-4.3 7.4,-6.5c4.4,-4 9,-7.7 13.8,-11.4c4.6,-3.6 9.1,-7.3 13.5,-11.1c4.9,-4.2 9.9,-8 15,-11.8c2.9,-2.3 5.3,-4.7 7.9,-7.3c-4.7,1.6 -8.3,4.1 -12.3,6.9c-0.7,0.4 -1.4,0.9 -2.1,1.4c-2.2,1.6 -4.4,3.1 -6.6,4.7c-1.4,1 -2.8,1.9 -4.2,2.9c-16.4,11.5 -32.5,23.3 -47.8,36.1c-0.6,0.5 -1.2,1 -1.8,1.5c-6.4,5.3 -12.6,10.7 -18.7,16.2c-1.4,1.3 -2.8,2.5 -4.2,3.7c-5.9,5 -11.3,10.4 -16.8,15.9c-1.6,1.6 -3.2,3.2 -4.8,4.8c-5.4,5.5 -10.8,11 -15.7,16.9c-0.6,0.6 -1.1,1.2 -1.7,1.9c-14.7,17.4 -27.7,35.5 -39.3,55.1c-0.7,1.1 -0.7,1.1 -1.4,2.3c-19.6,32.8 -35.3,75.2 -26.1,113.7c7.4,28.3 27.5,48.7 52,63.4c42.4,24.6 92.3,31.8 140.6,31.7c1.7,0 3.4,0 5.1,0c3.5,0 7,0 10.6,0c4.4,0 8.8,0 13.2,0c47,0.1 47,0.1 94,-2.6c1.3,-0.1 1.3,-0.1 2.7,-0.2c22.1,-1.9 44.2,-4.5 66.3,-7c1.9,-0.2 3.9,-0.4 5.8,-0.6c38.5,-4.2 38.5,-4.2 76.7,-11.3c1,-0.2 2.1,-0.5 3.2,-0.7c27,-6.3 53.8,-13.8 80.2,-22.1c2.2,-0.7 4.4,-1.3 6.6,-2c74.5,-23 147.3,-50.9 217.4,-85.1c3.3,-1.6 6.6,-3.2 10,-4.8c24.8,-11.9 49.3,-24.3 73.2,-38.1c3.1,-1.7 6.1,-3.5 9.2,-5.2c21.8,-12.5 42.9,-25.8 63.8,-39.7c0.8,-0.6 1.7,-1.1 2.5,-1.7c10.3,-6.8 20.4,-13.8 30.4,-21c0.8,-0.6 1.7,-1.3 2.6,-1.9c17,-12.4 33.5,-25.4 49.5,-39c3.4,-2.9 6.8,-5.7 10.2,-8.4c6,-4.9 11.6,-10.2 17.2,-15.5c2.5,-2.4 5.1,-4.7 7.7,-6.9c4.3,-3.7 8.2,-7.7 12.2,-11.8c2.6,-2.5 2.6,-2.5 5,-4.3c2.9,-2.5 5.2,-5.1 7.6,-8c4.2,-4.7 8.8,-9.1 13.3,-13.5c4.8,-4.7 9.3,-9.6 13.7,-14.7c1,-1.2 2.1,-2.4 3.1,-3.6c6.8,-7.7 13.3,-15.6 19.6,-23.7c1.2,-1.7 2.5,-3.3 3.7,-4.8c10.2,-12.9 19.3,-26.7 27.6,-40.9c0.6,-1.1 0.6,-1.1 1.2,-2.1c13.6,-23.5 34,-58.8 26.6,-87c-2.4,-7.1 -6.4,-13.8 -12.8,-17.9c-1.4,-0.4 -2.7,-0.7 -4,-1zm-285,116c-1.8,0.2 -3.7,0.4 -5.5,0.6c-83.3,9.6 -166.3,27.1 -436.7,144.7c-2.8,1.7 -5.6,3.3 -8.4,4.9c-13.8,8 -27.2,16.7 -40.4,25.8c-0.8,0.5 -1.6,1.1 -2.4,1.6c-18.2,12.5 -35.7,26.1 -52.6,40.4c-0.7,0.5 -1.3,1 -1.9,1.6c-8,6.7 -15.7,13.6 -23.3,20.7c-2,1.8 -3.9,3.7 -5.9,5.5c-7.1,6.6 -14.2,13.3 -21.1,20.2c-0.6,0.6 -1.1,1.2 -1.7,1.8c-3.6,3.6 -7,7.3 -10.3,11.2c-3.7,4.1 -7.5,8 -11.2,12c-4.3,4.6 -8.5,9.2 -12.6,14c-0.5,0.6 -1,1.1 -1.5,1.7c-22.8,26.2 -42.9,54.1 -58,85.4c-0.5,0.9 -0.9,1.8 -1.3,2.7c-2.1,4.4 -3.8,8.3 -4.2,13.2c2.9,0.3 5.8,0.6 8.7,0.9c0.8,0.1 1.6,0.2 2.4,0.3c19.2,2 38.6,2 57.9,2c1,0 1,0 2,0c24.7,0.1 49.3,-0.9 74,-3.2c1.1,-0.1 1.1,-0.1 2.2,-0.2c89.7,-8.4 177.4,-30.4 430.8,-126.8c1.6,-0.8 1.6,-0.8 3.2,-1.6c15.6,-7.6 30.8,-15.7 45.8,-24.4c1.9,-1.1 3.8,-2.2 5.8,-3.3c15.5,-9 30.9,-18.3 46.2,-27.7c1.5,-0.9 1.5,-0.9 3,-1.9c26.3,-16.1 51.8,-33.3 77,-51.1c0.8,-0.6 1.6,-1.1 2.4,-1.7c10.7,-7.6 21.2,-15.5 31.5,-23.7c2,-1.5 3.9,-3.1 5.9,-4.6c11,-8.6 21.8,-17.5 32.5,-26.6c1.7,-1.4 3.4,-2.9 5.1,-4.4c6.9,-5.8 13.6,-11.7 20.2,-17.9c2.6,-2.4 5.1,-4.7 7.7,-7.1c7.8,-7.1 15.3,-14.4 22.7,-21.8c1.4,-1.3 2.8,-2.7 4.2,-4.1c9.3,-9.1 17.4,-18.4 24.8,-29.1c-1,-1.1 -1.9,-2.3 -2.9,-3.4c-0.5,-0.6 -1.1,-1.3 -1.6,-1.9c-16.3,-18.3 -49.6,-20.4 -72.3,-23.4c-2.2,-0.3 -4.4,-0.6 -6.6,-0.9c-43.9,-6 -89.6,-5.6 -133.6,-0.4z"/>
     </svg>
    </svg>
   </svg>
  </g>
  <text xml:space="preserve" text-anchor="start" font-family="Noto Sans JP" font-size="240" id="svg_478" y="201" x="402" stroke-width="0" stroke="#000" fill="#fff">Mooji</text>
 </g>
</svg>